<?xml version="1.0" encoding="utf-8"?>
<!-- Generator: Adobe Illustrator 16.0.0, SVG Export Plug-In . SVG Version: 6.00 Build 0)  -->
<!DOCTYPE svg PUBLIC "-//W3C//DTD SVG 1.1//EN" "http://www.w3.org/Graphics/SVG/1.1/DTD/svg11.dtd">
<svg version="1.1" id="レイヤー_1" xmlns="http://www.w3.org/2000/svg" xmlns:xlink="http://www.w3.org/1999/xlink" x="0px"
	 y="0px" width="236px" height="14.626px" viewBox="0 0 236 14.626" enable-background="new 0 0 236 14.626" xml:space="preserve">
<g>
	<path fill-rule="evenodd" clip-rule="evenodd" fill="#010101" d="M75.778,7.592c-0.858,1.176-1.091,2.377-1.527,3.486
		c-0.192,0.488-0.344,0.992-0.52,1.486c-0.165,0.463-0.453,0.758-0.989,0.731c-0.503-0.025-0.668-0.382-0.817-0.778
		c-0.441-1.171-0.884-2.34-1.339-3.505c-0.159-0.407-0.273-0.854-0.866-1.171c-0.339,1.408-0.043,2.774-0.118,4.116
		c-0.032,0.564,0.297,1.369-0.689,1.365c-0.924-0.004-0.886-0.746-0.891-1.425c-0.016-2.422-0.075-4.844-0.066-7.266
		c0.002-0.553-0.174-1.331,0.707-1.462c0.845-0.125,1.469,0.127,1.763,1.065c0.521,1.655,1.114,3.287,1.722,4.912
		c0.128,0.344,0.175,0.927,0.676,0.896c0.457-0.028,0.515-0.578,0.653-0.939c0.602-1.585,1.164-3.186,1.765-4.771
		c0.214-0.565,0.431-1.11,1.215-1.179c0.912-0.081,1.222,0.225,1.229,1.148c0.021,2.683-0.236,5.364-0.022,8.047
		c0.037,0.464,0.157,1.067-0.63,1.021c-0.645-0.038-1.054-0.331-1.023-1.077c0.057-1.377,0.305-2.76-0.057-4.132
		C75.925,8.05,75.887,7.941,75.778,7.592z"/>
	<path fill-rule="evenodd" clip-rule="evenodd" d="M9.933,10.697c0,0.57,0.011,1.141-0.002,1.71
		c-0.025,1.052-0.432,1.326-1.354,0.875c-0.297-0.146-0.511-0.335-0.879-0.128c-3.129,1.771-5.9-0.16-6.742-3.519
		C0.333,7.15,1.528,4.677,3.584,3.333c1.76-1.15,4.951,0.032,5.781,1.804c0.221,0.474,0.57,1.024-0.037,1.408
		C8.77,6.899,8.256,6.704,7.886,6.116c-0.4-0.635-0.943-1.185-1.684-1.336C5.265,4.587,4.423,4.753,3.63,5.482
		c-1.894,1.745-1.087,6.071,1.327,6.429c1.038,0.154,2.362-0.203,2.876-1.095C8.19,10.2,8.246,9.631,7.306,9.5
		C6.903,9.443,6.501,9.362,6.097,9.343c-0.481-0.022-0.78-0.232-0.83-0.71c-0.05-0.488,0.247-0.826,0.683-0.862
		c1.129-0.094,2.27-0.126,3.386,0.13C9.81,8.009,9.907,8.42,9.901,8.862c-0.009,0.611-0.002,1.223-0.002,1.834
		C9.91,10.697,9.921,10.697,9.933,10.697z"/>
	<path fill-rule="evenodd" clip-rule="evenodd" d="M15.502,13.496c-0.896,0-1.793-0.026-2.689,0.007
		c-0.844,0.031-1.254-0.368-1.154-1.172c0.319-2.56,0.166-5.123,0.13-7.685c-0.01-0.731,0.171-1.183,1.065-1.286
		c1.833-0.213,3.662-0.096,5.492-0.133c0.607-0.012,0.889,0.347,0.896,0.921c0.009,0.723-0.434,1.042-1.089,1.017
		c-1.013-0.041-2.022-0.179-3.035-0.224c-0.886-0.039-1.841-0.222-1.817,1.242c0.022,1.357,0.882,1.209,1.75,1.198
		c0.896-0.012,1.793,0.014,2.689-0.014c0.633-0.02,1.049,0.151,0.994,0.876c-0.053,0.684-0.514,0.953-1.098,0.826
		c-1.062-0.23-2.112,0.068-3.162-0.037c-0.897-0.089-1.137,0.409-1.149,1.169c-0.013,0.784,0.045,1.549,1.073,1.565
		c1.179,0.019,2.361-0.016,3.538-0.09c0.764-0.048,1.439-0.035,1.493,0.939c0.057,1.037-0.722,0.876-1.363,0.879
		C17.212,13.5,16.356,13.497,15.502,13.496z"/>
	<path fill-rule="evenodd" clip-rule="evenodd" d="M20.816,8.136c0-1.261,0.008-2.523-0.004-3.784
		c-0.004-0.413-0.083-0.902,0.371-1.064c0.495-0.178,1.04-0.177,1.46,0.292c0.633,0.705,0.988,1.581,1.493,2.363
		c0.639,0.989,1.299,1.964,1.953,2.944c0.16,0.239,0.339,0.516,0.667,0.427c0.37-0.101,0.267-0.461,0.263-0.725
		c-0.022-1.384-0.042-2.769-0.108-4.151c-0.03-0.621-0.064-1.17,0.769-1.216c0.869-0.048,1.059,0.534,0.991,1.191
		c-0.252,2.438-0.173,4.866,0.044,7.3c0.057,0.636,0.141,1.368-0.683,1.638c-0.846,0.276-1.28-0.33-1.664-0.91
		c-1.005-1.52-1.712-3.225-2.871-4.651c-0.245-0.302-0.41-0.856-0.881-0.679c-0.462,0.174-0.22,0.721-0.231,1.099
		c-0.034,1.222,0.029,2.44,0.208,3.654c0.09,0.617,0.106,1.311-0.77,1.37c-0.938,0.064-0.986-0.588-0.968-1.312
		c0.033-1.261,0.01-2.523,0.01-3.785C20.849,8.136,20.833,8.136,20.816,8.136z"/>
	<path fill-rule="evenodd" clip-rule="evenodd" d="M48.232,7.245c0-1.016,0.008-1.952-0.003-2.889
		c-0.009-0.795,0.285-1.179,1.162-1.152c1.71,0.054,3.424,0.026,5.136,0.005c0.652-0.007,1.177,0.107,1.108,0.905
		c-0.067,0.774-0.668,0.901-1.257,0.787c-1.213-0.235-2.432-0.186-3.651-0.218c-0.883-0.023-0.987,0.5-0.952,1.194
		c0.035,0.688-0.111,1.489,0.947,1.494c0.977,0.003,1.956-0.015,2.93-0.085c0.637-0.045,1.396-0.16,1.437,0.659
		c0.042,0.844-0.73,0.917-1.423,0.907c-0.938-0.014-1.875,0.011-2.813-0.008c-0.603-0.012-1.106,0.113-1.057,0.835
		c0.051,0.736-0.405,1.732,0.839,1.97c0.848,0.162,1.703,0.198,2.55,0.024c0.61-0.125,1.219-0.129,1.822-0.034
		c0.374,0.059,0.685,0.25,0.694,0.718c0.009,0.493-0.241,0.827-0.699,0.836c-2.077,0.041-4.155,0.055-6.231,0.029
		c-0.561-0.007-0.516-0.56-0.548-0.943C48.076,10.572,48.461,8.872,48.232,7.245z"/>
	<path fill-rule="evenodd" clip-rule="evenodd" fill="#010101" d="M31.12,9.095c0-1.263,0.036-2.528-0.013-3.79
		c-0.029-0.758,0.165-1.122,1.003-1.122c1.707-0.001,3.422,0.154,5.12-0.202c0.509-0.107,1.006-0.004,1.091,0.659
		c0.089,0.702-0.361,0.98-0.943,1.001c-1.222,0.044-2.449,0.083-3.667,0.009c-1.287-0.079-1.051,0.82-1.121,1.548
		c-0.084,0.868,0.387,1.176,1.179,1.124c0.895-0.06,1.788-0.159,2.683-0.196c0.597-0.025,1.363-0.133,1.317,0.802
		c-0.043,0.878-0.803,0.776-1.395,0.773c-0.936-0.005-1.871-0.07-2.807-0.095c-0.638-0.017-1.082,0.279-0.941,0.947
		c0.145,0.69-0.523,1.637,0.731,2.022c1.286,0.395,2.499-0.134,3.748-0.071c0.602,0.03,1.235,0.005,1.265,0.779
		c0.035,0.915-0.726,0.678-1.252,0.697c-1.547,0.058-3.096,0.073-4.643,0.143c-0.899,0.041-1.369-0.217-1.31-1.237
		c0.074-1.26,0.018-2.527,0.018-3.792C31.163,9.095,31.141,9.095,31.12,9.095z"/>
	<path fill-rule="evenodd" clip-rule="evenodd" d="M140.035,5.983c0.988-0.06,1.931-0.335,2.955,0.112
		c0.542,0.237,0.896-0.528,0.91-1.158c0.013-0.591,0.009-1.212,0.83-1.21c0.759,0.002,0.727,0.606,0.779,1.137
		c0.045,0.461,0.231,0.792,0.676,1.066c0.776,0.479,0.741,1.123-0.013,1.605c-0.388,0.248-0.659,0.536-0.631,0.952
		c0.049,0.731,0.031,1.451-0.027,2.18c-0.036,0.45,0.138,0.888,0.541,1.167c0.43,0.298,0.755,0.654,0.584,1.215
		c-0.149,0.49-0.598,0.511-1.003,0.495c-0.618-0.022-1.262-0.083-1.505-0.789c-0.116-0.336-0.142-0.715-0.151-1.075
		c-0.022-0.896,0.005-1.792-0.017-2.687c-0.018-0.766,0.068-1.639-0.957-1.854c-0.9-0.189-2.349,0.562-2.657,1.317
		c-0.334,0.82-0.235,1.673-0.163,2.527c0.048,0.563,0.112,1.14,0.045,1.695c-0.058,0.472-0.402,0.829-0.936,0.768
		c-0.516-0.06-0.757-0.406-0.753-0.934c0.015-1.913,0.033-3.826,0.028-5.738C138.567,5.584,139.414,5.974,140.035,5.983z"/>
	<path fill-rule="evenodd" clip-rule="evenodd" fill="#010101" d="M42.893,9.714c0.805-1.58,1.225-3.256,1.748-4.892
		c0.124-0.385,0.186-0.794,0.345-1.162c0.267-0.615,0.798-0.865,1.399-0.613c0.563,0.237,0.46,0.717,0.279,1.243
		c-0.894,2.591-1.739,5.199-2.606,7.799c-0.195,0.585-0.386,1.15-1.185,1.17c-0.814,0.021-0.956-0.552-1.204-1.126
		c-1.047-2.417-1.674-4.976-2.548-7.451C38.93,4.147,38.611,3.346,39.42,3.12c0.679-0.189,1.157,0.323,1.354,1.073
		c0.349,1.328,0.771,2.637,1.182,3.947C42.134,8.706,42.287,9.299,42.893,9.714z"/>
	<path fill-rule="evenodd" clip-rule="evenodd" fill="#010101" d="M79.78,8.797c0-0.689-0.014-1.38,0.004-2.07
		c0.015-0.573,0.174-1.067,0.887-1.052c0.631,0.014,0.838,0.459,0.839,0.986c0.001,1.173-0.073,2.347-0.065,3.52
		c0.005,0.729-0.006,1.53,1.04,1.613c1.014,0.081,1.447-0.498,1.646-1.403c0.25-1.131,0.096-2.267,0.106-3.4
		c0.005-0.621-0.033-1.305,0.859-1.308c0.873-0.003,0.918,0.646,0.885,1.289c-0.089,1.741-0.18,3.48,0.003,5.221
		c0.089,0.847-0.307,1.194-1.155,1.101c-0.643-0.071-1.265-0.006-1.916,0.154c-1.528,0.376-2.876-0.69-3.031-2.336
		c-0.072-0.765-0.012-1.542-0.012-2.314C79.839,8.797,79.81,8.797,79.78,8.797z"/>
	<path fill-rule="evenodd" clip-rule="evenodd" fill="#010101" d="M90.682,5.631c0.948-0.125,1.726,0.411,2.31,1.27
		c0.217,0.319,0.512,0.726,0.079,1.088c-0.425,0.356-0.878,0.224-1.161-0.19c-0.467-0.685-1.113-0.727-1.826-0.651
		c-0.271,0.029-0.468,0.181-0.559,0.412c-0.134,0.342,0.132,0.583,0.37,0.68c0.596,0.242,1.22,0.415,1.839,0.597
		c1.123,0.331,1.847,1.034,1.927,2.226c0.069,1.027-0.804,2.007-1.963,2.342c-1.482,0.427-3.313-0.326-3.85-1.576
		c-0.189-0.442-0.306-0.887,0.186-1.18c0.453-0.27,0.781,0.038,1.015,0.389c0.571,0.861,1.302,1.173,2.302,0.8
		c0.312-0.117,0.652-0.176,0.694-0.572c0.041-0.39-0.287-0.525-0.543-0.731c-0.438-0.352-0.93-0.409-1.46-0.498
		c-1.871-0.313-2.79-1.934-1.952-3.339C88.536,5.949,89.283,5.621,90.682,5.631z"/>
	<path fill-rule="evenodd" clip-rule="evenodd" fill="#010101" d="M192.644,10.801c0-0.61,0.061-1.228-0.015-1.828
		c-0.101-0.791-0.36-1.593-1.355-1.57c-0.957,0.021-1.634,0.574-1.737,1.55c-0.094,0.884-0.025,1.786-0.024,2.68
		c0,0.365,0.034,0.731,0.013,1.095c-0.021,0.387-0.153,0.723-0.621,0.76c-0.516,0.04-0.767-0.305-0.822-0.722
		c-0.075-0.56-0.104-1.143-0.036-1.703c0.256-2.107,0.125-4.218,0.136-6.329c0.002-0.283,0.043-0.568,0.09-0.848
		c0.06-0.35,0.324-0.436,0.634-0.434c0.327,0.002,0.551,0.14,0.567,0.494c0.013,0.284,0.021,0.57,0.005,0.854
		c-0.059,1.029,0.036,1.601,1.411,1.181c1.808-0.551,3.147,0.784,3.136,2.946c-0.005,1.097-0.032,2.188,0.087,3.283
		c0.065,0.59-0.041,1.246-0.802,1.244c-0.758-0.003-0.657-0.664-0.653-1.189c0.004-0.488,0-0.976,0-1.464
		C192.654,10.801,192.649,10.801,192.644,10.801z"/>
	<path fill-rule="evenodd" clip-rule="evenodd" fill="#010101" d="M202.285,5.911c1.25-0.068,2.09,0.457,2.653,1.47
		c0.209,0.375,0.369,0.757-0.09,1.066c-0.474,0.318-0.807,0-0.999-0.35c-0.463-0.841-1.179-0.887-1.985-0.754
		c-0.36,0.059-0.599,0.253-0.626,0.63c-0.023,0.332,0.187,0.53,0.468,0.636c0.452,0.171,0.904,0.359,1.373,0.465
		c1.171,0.265,2.195,0.706,2.408,2.048c0.148,0.938-0.295,1.68-1.086,2.131c-1.175,0.671-2.409,0.702-3.564-0.051
		c-0.429-0.28-0.776-0.711-1.099-1.123c-0.252-0.322-0.435-0.739,0.02-1.06c0.426-0.302,0.809-0.115,1.009,0.289
		c0.466,0.938,1.261,1.025,2.162,0.97c0.489-0.029,0.896-0.116,0.99-0.68c0.091-0.533-0.187-0.87-0.651-1.028
		c-0.529-0.18-1.091-0.268-1.623-0.444c-1.604-0.532-2.1-1.153-1.928-2.355C199.869,6.707,200.986,5.918,202.285,5.911z"/>
	<path fill-rule="evenodd" clip-rule="evenodd" fill="#010101" d="M165.014,9.989c-0.101-0.962,0.389-2.164-0.855-2.886
		c-0.1-0.058-0.123-0.51-0.064-0.538c0.932-0.451,0.96-1.255,0.964-2.134c0.003-0.417,0.426-0.559,0.83-0.515
		c0.372,0.041,0.61,0.255,0.582,0.645c-0.058,0.793,0.086,1.353,0.977,1.693c0.475,0.181,0.428,0.944-0.128,1.153
		c-0.866,0.325-0.865,0.944-0.843,1.657c0.021,0.649,0.015,1.3,0.001,1.949c-0.009,0.428,0.058,0.804,0.461,1.046
		c0.379,0.227,0.846,0.42,0.703,0.994c-0.087,0.35-0.375,0.535-0.731,0.527c-0.606-0.014-1.275,0.013-1.583-0.647
		c-0.184-0.391-0.26-0.85-0.302-1.287C164.976,11.123,165.014,10.591,165.014,9.989z"/>
	<path fill-rule="evenodd" clip-rule="evenodd" fill="#010101" d="M207.346,10.152c-0.015-1.081,0.278-2.218-0.854-3.001
		c-0.169-0.117,1.107-3.167,1.331-3.204c0.636-0.105,1.041,0.073,0.985,0.821c-0.05,0.675-0.01,1.186,0.851,1.481
		c0.681,0.234,0.52,0.888-0.159,1.101c-0.646,0.204-0.797,0.611-0.789,1.188c0.011,0.854,0.028,1.708,0.024,2.561
		c-0.002,0.565,0.294,0.904,0.771,1.13c0.396,0.188,0.314,0.54,0.258,0.848c-0.062,0.336-0.342,0.393-0.65,0.423
		c-1.048,0.104-1.644-0.383-1.756-1.396C207.288,11.461,207.346,10.804,207.346,10.152z"/>
	<path fill-rule="evenodd" clip-rule="evenodd" fill="#010101" d="M222.59,11.631c0.267-1.458,0.132-2.962,0.161-4.463
		c0.011-0.558,0.292-1.143,0.803-0.955c0.859,0.315,1.562-0.018,2.333-0.15c0.513-0.088,0.892,0.161,0.953,0.693
		c0.054,0.462-0.221,0.73-0.67,0.864c-1.647,0.492-2.168,1.301-1.902,3.023c0.1,0.643,0.234,1.277,0.195,1.932
		c-0.036,0.627-0.248,1.125-0.971,1.155c-0.799,0.034-0.733-0.572-0.775-1.098C222.69,12.31,222.636,11.989,222.59,11.631z"/>
	<path fill-rule="evenodd" clip-rule="evenodd" fill="#020202" d="M220.55,10.027c0,0.893-0.008,1.786,0.004,2.678
		c0.005,0.456-0.077,0.81-0.641,0.812c-0.522,0-0.837-0.173-0.843-0.771c-0.017-1.905-0.071-3.809-0.09-5.714
		c-0.004-0.47,0.103-0.89,0.74-0.879c0.662,0.011,0.818,0.421,0.825,0.958C220.558,8.082,220.549,9.055,220.55,10.027z"/>
	<path fill-rule="evenodd" clip-rule="evenodd" fill="#020202" d="M197.797,9.926c0,0.893-0.009,1.787,0.004,2.68
		c0.007,0.511-0.115,0.868-0.721,0.892c-0.609,0.023-0.758-0.306-0.759-0.834c-0.003-1.866-0.024-3.732-0.041-5.599
		c-0.004-0.528,0.068-1.008,0.752-0.991c0.702,0.017,0.7,0.573,0.713,1.054c0.025,0.933,0.007,1.866,0.007,2.799
		C197.767,9.926,197.782,9.926,197.797,9.926z"/>
	<path fill-rule="evenodd" clip-rule="evenodd" fill="#040404" d="M57.761,13.509c-0.982,0.016-1.215-0.621-1.233-1.276
		c-0.021-0.825,0.496-1.184,1.328-1.195c0.888-0.013,1.156,0.596,1.138,1.241C58.975,13.024,58.507,13.539,57.761,13.509z"/>
	<path fill-rule="evenodd" clip-rule="evenodd" fill="#070707" d="M186.054,4.584c0.073,0.708-0.128,1.338-0.682,1.821
		c-0.138,0.12-0.328,0.25-0.545,0.112c-0.201-0.13-0.244-0.317-0.145-0.52c0.209-0.429,0.188-0.826-0.01-1.269
		c-0.18-0.404-0.244-0.867,0.111-1.24c0.207-0.217,0.46-0.278,0.769-0.146C186.139,3.593,186.082,4.082,186.054,4.584z"/>
	<path fill-rule="evenodd" clip-rule="evenodd" fill="#0A0A0A" d="M99.102,2.681c0.478,0.012,0.774,0.189,0.809,0.629
		c0.039,0.482-1.302,1.673-1.81,1.622c-0.592-0.061-0.5-0.48-0.498-0.904C97.607,2.954,98.397,2.848,99.102,2.681z"/>
	<path fill-rule="evenodd" clip-rule="evenodd" fill="#080808" d="M128.867,4.094c-0.044,0.429-0.005,0.78-0.125,1.062
		c-0.181,0.422-0.35,1.071-0.922,0.955c-0.636-0.129-0.101-0.636-0.121-0.978c-0.016-0.271-0.111-0.546-0.216-0.8
		c-0.156-0.377-0.143-0.739,0.155-1c0.249-0.22,0.606-0.233,0.911-0.09C128.973,3.442,128.8,3.867,128.867,4.094z"/>
	<path fill-rule="evenodd" clip-rule="evenodd" fill="#050505" d="M197.805,4.061c-0.015,0.663-0.096,1.119-0.779,1.129
		c-0.727,0.011-0.707-0.51-0.749-1.002c-0.052-0.604,0.239-0.955,0.826-0.934C197.66,3.275,197.83,3.69,197.805,4.061z"/>
	<path fill-rule="evenodd" clip-rule="evenodd" fill="#070707" d="M34.215,1.232c0.842,0.045,1.107,0.6,1.194,1.284
		c0.056,0.435-0.264,0.606-0.605,0.513C34.107,2.841,33.58,2.34,33.45,1.655C33.348,1.118,33.929,1.297,34.215,1.232z"/>
	<path fill-rule="evenodd" clip-rule="evenodd" fill="#060606" d="M219.713,5.179c-0.558,0.011-0.671-0.349-0.677-0.798
		c-0.008-0.498,0.119-0.889,0.719-0.9c0.664-0.012,0.658,0.487,0.674,0.927C220.445,4.876,220.221,5.174,219.713,5.179z"/>
	<path fill-rule="evenodd" clip-rule="evenodd" fill="#010101" d="M125.069,3.007c-0.514-0.051-1.007,0.074-1.13,0.668
		c-0.073,0.352-0.051,0.731-0.023,1.094c0.063,0.834-0.268,1.052-1.093,0.918c-2.382-0.385-4.069,1.194-4.03,3.718
		c0,0.203-0.024,0.409,0.003,0.608c0.365,2.713,1.827,3.705,4.52,3.062c0.285-0.068,0.561-0.106,0.833,0.01
		c1.185,0.508,1.275-0.171,1.276-1.099c0.005-2.72-0.237-5.444,0.122-8.159C125.6,3.432,125.551,3.055,125.069,3.007z
		 M122.158,11.783c-1.192-0.007-1.941-0.909-1.916-2.303c0.028-1.458,0.771-2.386,1.88-2.344c1.164,0.043,1.82,0.977,1.788,2.542
		C123.879,11.128,123.328,11.791,122.158,11.783z"/>
	<path fill-rule="evenodd" clip-rule="evenodd" d="M182.628,8.479c0-1.383-0.003-2.766,0.001-4.148
		c0.002-0.433-0.031-0.844-0.58-0.896c-0.58-0.055-0.785,0.336-0.863,0.815c-0.04,0.238-0.038,0.487-0.023,0.73
		c0.056,0.91-0.091,1.406-1.232,1.016c-0.895-0.306-1.839-0.14-2.607,0.568c-1.642,1.515-1.652,3.637-0.832,5.351
		c0.66,1.377,1.974,1.931,3.432,1.608c0.545-0.121,1.054-0.243,1.642-0.054c0.775,0.25,1.098-0.154,1.073-0.963
		C182.598,11.165,182.628,9.821,182.628,8.479z M179.348,12.181c-1.215,0.011-1.865-0.851-1.858-2.464
		c0.005-1.436,0.67-2.34,1.717-2.336c1.063,0.003,1.973,1.162,1.953,2.488C181.141,11.219,180.393,12.172,179.348,12.181z"/>
	<path fill-rule="evenodd" clip-rule="evenodd" fill="#010101" d="M106.91,5.535c-2.098-0.162-3.127,0.622-3.815,2.902
		c-0.466,1.55,0.369,3.881,1.651,4.61c1.306,0.743,3.339,0.558,4.176-0.437c0.374-0.444,0.943-1.015,0.394-1.593
		c-0.553-0.583-1.09-0.118-1.545,0.346c-0.71,0.724-1.504,0.958-2.373,0.268c-0.285-0.227-0.573-0.542-0.487-0.922
		c0.091-0.4,0.523-0.517,0.875-0.555c0.521-0.058,1.052-0.015,1.578-0.015c0,0.01,0,0.021,0,0.033
		c0.527,0.027,1.056,0.086,1.583,0.073c0.363-0.01,0.688-0.109,0.816-0.568C110.225,8.029,108.616,5.667,106.91,5.535z
		 M106.006,8.862c-0.459-0.154-1.185-0.018-1.131-0.673c0.062-0.752,0.748-1.227,1.446-1.201c0.585,0.021,1.508,0.231,1.442,1.007
		C107.678,9.004,106.599,8.562,106.006,8.862z"/>
	<path fill-rule="evenodd" clip-rule="evenodd" fill="#010101" d="M97.319,10.076c0.529-0.016,1.059-0.003,1.588-0.003
		c0-0.024,0-0.048,0-0.072c0.61,0,1.224,0.038,1.83-0.012c0.445-0.037,0.948-0.153,0.898-0.769c-0.1-1.245-0.396-2.469-1.51-3.173
		C99.142,5.426,98,5.145,96.889,5.816c-1.458,0.881-2.083,2.312-2.036,3.909c0.048,1.639,0.895,2.951,2.48,3.604
		c1.451,0.598,3.238-0.099,3.855-1.41c0.163-0.346,0.368-0.683-0.017-0.976c-0.323-0.246-0.695-0.197-1.017,0.04
		c-0.195,0.144-0.351,0.338-0.537,0.494c-0.834,0.702-2.168,0.508-2.74-0.422C96.571,10.557,96.521,10.099,97.319,10.076z
		 M98.245,6.914c0.792-0.026,1.616,0.412,1.585,1.183c-0.041,1.017-1.06,0.257-1.558,0.555c-0.519-0.149-1.381,0.3-1.425-0.489
		C96.81,7.479,97.492,6.939,98.245,6.914z"/>
	<path fill-rule="evenodd" clip-rule="evenodd" d="M158.747,10.322c0.528-0.02,1.057-0.005,1.584-0.005
		c0.366-0.001,0.735-0.033,1.097,0.005c1.648,0.173,1.914-0.576,1.365-1.989c-0.131-0.336-0.279-0.672-0.464-0.981
		c-0.929-1.547-3.067-2.123-4.425-1.205c-2.273,1.539-2.194,5.646,0.137,7.112c1.392,0.875,3.524,0.523,4.381-0.733
		c0.232-0.34,0.449-0.73,0.117-1.104c-0.369-0.417-0.805-0.284-1.196,0.003c-0.195,0.144-0.34,0.357-0.542,0.489
		c-0.829,0.543-1.99,0.321-2.598-0.474c-0.205-0.269-0.375-0.553-0.213-0.894C158.147,10.213,158.481,10.332,158.747,10.322z
		 M159.677,7.18c0.739-0.016,1.624,0.388,1.595,1.173c-0.037,0.992-1.066,0.489-1.67,0.67c-0.558-0.018-1.376,0.214-1.433-0.59
		C158.109,7.558,158.942,7.195,159.677,7.18z"/>
	<path fill-rule="evenodd" clip-rule="evenodd" fill="#010101" d="M230.221,10.56c0.486-0.02,0.976-0.005,1.463-0.005
		c0-0.011,0-0.022,0-0.034c0.61,0,1.223,0.034,1.828-0.01c0.529-0.038,0.922-0.28,0.944-0.904c0.049-1.262-1.087-3.007-2.215-3.375
		c-1.573-0.514-3.042-0.014-3.936,1.34c-1.001,1.517-0.912,3.092-0.049,4.584c1.124,1.942,3.964,2.307,5.323,0.751
		c0.368-0.42,0.835-0.985,0.306-1.478c-0.408-0.381-0.992-0.14-1.401,0.285c-0.14,0.146-0.28,0.313-0.455,0.4
		c-0.845,0.424-1.645,0.403-2.308-0.348c-0.212-0.239-0.428-0.528-0.324-0.878C229.522,10.46,229.915,10.572,230.221,10.56z
		 M231,7.362c0.873-0.006,1.677,0.43,1.607,1.256c-0.079,0.948-1.133,0.29-1.676,0.619c-0.503-0.331-1.535,0.35-1.508-0.71
		C229.444,7.72,230.192,7.368,231,7.362z"/>
	<path fill-rule="evenodd" clip-rule="evenodd" fill="#010101" d="M136.622,12.351c-0.632-1.286-0.453-2.619-0.478-3.945
		c-0.036-1.946-0.81-2.742-2.732-2.758c-1.338-0.011-2.203,0.486-2.662,1.52c-0.168,0.38-0.377,0.791,0.07,1.084
		c0.416,0.272,0.765,0.054,1.041-0.311c0.195-0.259,0.376-0.542,0.62-0.746c0.531-0.445,1.089-0.199,1.596,0.062
		c0.326,0.168,0.627,0.473,0.519,0.878c-0.144,0.534-0.715,0.468-1.112,0.611c-0.296,0.106-0.642,0.062-0.963,0.107
		c-1.285,0.187-2.129,0.984-2.256,2.019c-0.209,1.699,0.993,2.826,3.081,2.433c0.824-0.155,1.55-0.487,2.438-0.06
		C136.52,13.599,136.943,13.004,136.622,12.351z M134.648,10.613c-0.179,0.904-0.827,1.347-1.726,1.423
		c-0.66,0.048-1.028-0.314-1.122-0.895c-0.104-0.638,1.055-1.328,2.083-1.27C134.342,9.898,134.745,10.124,134.648,10.613z"/>
	<path fill-rule="evenodd" clip-rule="evenodd" fill="#010101" d="M213.938,6.156c-1.788,0.093-3.301,2.01-3.199,4.053
		c0.112,2.25,1.672,3.893,3.583,3.775c1.835-0.113,3.325-1.956,3.265-4.036C217.523,7.838,215.812,6.059,213.938,6.156z
		 M213.958,12.503c-1.112-0.06-1.828-1.127-1.762-2.625c0.064-1.465,0.863-2.349,2.084-2.305c0.994,0.035,1.928,1.291,1.848,2.481
		C216.022,11.593,215.159,12.568,213.958,12.503z"/>
</g>
</svg>
